HIERARCHY
ROOT Hips
{
 OFFSET 0.000000 0.000000 0.000000
 CHANNELS 6 Xposition Yposition Zposition Yrotation Xrotation Zrotation
 JOINT Chest
 {
  OFFSET 0.000000 10.354800 0.006500
  CHANNELS 3 Yrotation Xrotation Zrotation
  JOINT Chest2
  {
   OFFSET 0.000000 10.435800 -0.013200
   CHANNELS 3 Yrotation Xrotation Zrotation
   JOINT Chest3
   {
    OFFSET 0.000000 10.393700 0.000000
    CHANNELS 3 Yrotation Xrotation Zrotation
    JOINT Chest4
    {
     OFFSET 0.000000 10.383100 0.000000
     CHANNELS 3 Yrotation Xrotation Zrotation
     JOINT Neck
     {
      OFFSET 0.000000 15.694000 0.000000
      CHANNELS 3 Yrotation Xrotation Zrotation
      JOINT Head
      {
       OFFSET 0.000000 9.711000 -0.028000
       CHANNELS 3 Yrotation Xrotation Zrotation
       End Site
       {
        OFFSET 0.000000 18.578700 -0.014800
       }
      }
     }
     JOINT RightCollar
     {
      OFFSET -3.157200 10.367500 0.000000
      CHANNELS 3 Yrotation Xrotation Zrotation
      JOINT RightShoulder
      {
       OFFSET -14.482500 0.000000 0.000000
       CHANNELS 3 Yrotation Xrotation Zrotation
       JOINT RightElbow
       {
        OFFSET 0.000000 -31.707800 0.000000
        CHANNELS 3 Yrotation Xrotation Zrotation
        JOINT RightWrist
        {
         OFFSET 0.000000 -25.659300 0.000000
         CHANNELS 3 Yrotation Xrotation Zrotation
         End Site
         {
          OFFSET 0.000000 -18.994300 0.000000
         }
        }
       }
      }
     }
     JOINT LeftCollar
     {
      OFFSET 3.157200 10.367500 0.000000
      CHANNELS 3 Yrotation Xrotation Zrotation
      JOINT LeftShoulder
      {
       OFFSET 14.482500 0.000000 0.000000
       CHANNELS 3 Yrotation Xrotation Zrotation
       JOINT LeftElbow
       {
        OFFSET 0.000000 -31.707800 0.000000
        CHANNELS 3 Yrotation Xrotation Zrotation
        JOINT LeftWrist
        {
         OFFSET 0.000000 -25.659300 0.000000
         CHANNELS 3 Yrotation Xrotation Zrotation
         End Site
         {
          OFFSET 0.000000 -18.994300 0.000000
         }
        }
       }
      }
     }
    }
   }
  }
 }
 JOINT RightHip
 {
  OFFSET -8.365600 -0.032100 -0.003200
  CHANNELS 3 Yrotation Xrotation Zrotation
  JOINT RightKnee
  {
   OFFSET 0.000000 -43.980000 0.003100
   CHANNELS 3 Yrotation Xrotation Zrotation
   JOINT RightAnkle
   {
    OFFSET 0.000000 -42.882800 0.005200
    CHANNELS 3 Yrotation Xrotation Zrotation
    JOINT RightToe
    {
     OFFSET 0.000000 -4.915500 10.826300
     CHANNELS 3 Yrotation Xrotation Zrotation
     End Site
     {
      OFFSET 0.000000 -1.517500 6.175900
     }
    }
   }
  }
 }
 JOINT LeftHip
 {
  OFFSET 8.365600 -0.032100 -0.003200
  CHANNELS 3 Yrotation Xrotation Zrotation
  JOINT LeftKnee
  {
   OFFSET 0.000000 -43.980000 0.003100
   CHANNELS 3 Yrotation Xrotation Zrotation
   JOINT LeftAnkle
   {
    OFFSET 0.000000 -42.882800 0.005200
    CHANNELS 3 Yrotation Xrotation Zrotation
    JOINT LeftToe
    {
     OFFSET 0.000000 -4.915500 10.826300
     CHANNELS 3 Yrotation Xrotation Zrotation
     End Site
     {
      OFFSET 0.000000 -1.517500 6.175900
     }
    }
   }
  }
 }
}
MOTION
Frames: 5
Frame Time: 0.008333
-5.388909 126.530300 35.530162 175.692574 -20.775976 -3.770721 -1.534590 13.752674 3.789422 -0.165290 1.223564 0.345095 -0.281994 2.029996 0.581432 -1.410677 12.357973 3.420222 -1.677806 18.846080 -2.979900 -1.101641 -5.794311 -2.781130 0.913161 6.667112 -7.569287 -3.856256 -3.690011 -1.885484 -96.248908 -51.497731 134.294981 -23.550631 -23.263910 -40.623075 1.750908 9.441767 2.600586 10.144077 -2.737323 -4.879955 106.315312 -51.979285 -150.386136 26.117701 -12.649283 49.886529 10.267472 -61.367408 1.494076 -110.534302 81.402978 -104.248675 3.171777 -9.437677 -14.519900 -0.000968 -0.009865 -0.000439 -17.645627 -60.831944 10.706225 98.961749 82.271864 92.117574 -9.753913 -8.566615 2.555757 0.001490 0.001702 0.000676
-5.388772 126.529026 35.529938 175.692158 -20.759278 -3.771585 -1.525702 13.774210 3.793059 -0.169222 1.201971 0.345670 -0.282555 2.025449 0.581786 -1.406853 12.374664 3.423210 -1.664929 18.854631 -2.981031 -1.087746 -5.784926 -2.785368 0.933180 6.666604 -7.567273 -3.834398 -3.685297 -1.890023 -96.209886 -51.475103 134.265711 -23.567195 -23.257007 -40.617698 1.716607 9.439291 2.599854 10.082618 -2.781678 -4.934282 106.288254 -51.969967 -150.353409 26.112399 -12.712579 49.897193 10.277614 -61.385300 1.482922 -110.481759 81.402705 -104.198862 3.177392 -9.459257 -14.512583 -0.001680 -0.014423 -0.000763 -17.659704 -60.843726 10.725934 98.954853 82.259991 92.104236 -9.763445 -8.588912 2.559454 0.001145 -0.000348 0.000520
-5.388844 126.528327 35.528194 175.690886 -20.751840 -3.771019 -1.523935 13.771892 3.793420 -0.169463 1.217767 0.344178 -0.281426 2.016416 0.584114 -1.403827 12.383607 3.423745 -1.660294 18.852030 -2.980102 -1.072386 -5.758638 -2.786958 0.938658 6.655261 -7.565842 -3.800920 -3.659560 -1.893386 -96.174655 -51.452911 134.243581 -23.581267 -23.253387 -40.616665 1.662929 9.476738 2.586498 10.037278 -2.858270 -4.986091 106.348162 -51.998534 -150.351891 26.110831 -12.757468 49.882545 10.309742 -61.391965 1.452182 -110.364690 81.393874 -104.071430 3.167662 -9.435160 -14.510254 -0.005385 -0.012338 -0.002445 -17.661334 -60.849837 10.735692 98.972187 82.248651 92.117075 -9.782805 -8.598458 2.564303 0.000305 -0.001981 0.000139
-5.388336 126.527217 35.527756 175.683290 -20.737967 -3.771965 -1.515762 13.777489 3.796505 -0.170502 1.222160 0.341420 -0.278969 2.014574 0.587326 -1.402410 12.368150 3.425232 -1.654775 18.862966 -2.979338 -1.065998 -5.733784 -2.782238 0.947068 6.670420 -7.563111 -3.792222 -3.657179 -1.894011 -96.110114 -51.434952 134.205841 -23.575950 -23.261866 -40.614811 1.639780 9.494474 2.575006 9.960954 -2.901802 -5.030656 106.429224 -52.034588 -150.364789 26.085907 -12.785691 49.880466 10.327896 -61.408724 1.440302 -110.225000 81.376707 -103.931445 3.194789 -9.385522 -14.508949 -0.005745 -0.009944 -0.002608 -17.663239 -60.862441 10.753929 98.989207 82.237702 92.132329 -9.802626 -8.603576 2.569004 -0.000150 -0.001715 -0.000068
-5.387996 126.525812 35.528268 175.668614 -20.719730 -3.769314 -1.502642 13.777938 3.795403 -0.171566 1.218942 0.340998 -0.276746 2.020900 0.587621 -1.397367 12.374154 3.423552 -1.646889 18.891994 -2.971510 -1.071962 -5.750261 -2.769611 0.969558 6.676188 -7.555829 -3.813498 -3.679815 -1.889394 -96.022834 -51.420907 134.148866 -23.540475 -23.289009 -40.610185 1.617411 9.489309 2.567374 9.890690 -2.942597 -5.072146 106.565205 -52.038709 -150.467036 26.036539 -12.785813 49.922763 10.346584 -61.429590 1.433016 -110.073607 81.358634 -103.783226 3.224479 -9.344467 -14.506960 -0.006104 -0.010002 -0.002771 -17.654285 -60.879369 10.769044 98.982656 82.226318 92.126920 -9.842676 -8.613670 2.575695 -0.002635 -0.002304 -0.001196
